<mxfile host="Electron" agent="Mozilla/5.0 (Windows NT 10.0; Win64; x64) AppleWebKit/537.36 (KHTML, like Gecko) draw.io/28.0.6 Chrome/138.0.7204.100 Electron/37.2.3 Safari/537.36" version="28.0.6">
  <diagram name="Page-1" id="FRkkPbEm9CwAqfSYTeEQ">
    <mxGraphModel dx="1426" dy="859" grid="1" gridSize="10" guides="1" tooltips="1" connect="1" arrows="1" fold="1" page="1" pageScale="1" pageWidth="850" pageHeight="1100" math="0" shadow="0">
      <root>
        <mxCell id="0" />
        <mxCell id="1" parent="0" />
        <mxCell id="jgiwaZmRZfAXH9g5tH43-1" value="PSF flight software architecture design" style="text;strokeColor=none;fillColor=none;html=1;fontSize=24;fontStyle=1;verticalAlign=middle;align=center;" vertex="1" parent="1">
          <mxGeometry x="353" y="40" width="100" height="40" as="geometry" />
        </mxCell>
        <mxCell id="jgiwaZmRZfAXH9g5tH43-2" value="Revision: #1 -&amp;gt; 26 Aug 2025" style="text;html=1;align=center;verticalAlign=middle;resizable=0;points=[];autosize=1;strokeColor=none;fillColor=none;" vertex="1" parent="1">
          <mxGeometry x="50" y="70" width="170" height="30" as="geometry" />
        </mxCell>
        <mxCell id="jgiwaZmRZfAXH9g5tH43-6" value="" style="group" vertex="1" connectable="0" parent="1">
          <mxGeometry x="50" y="120" width="210" height="150" as="geometry" />
        </mxCell>
        <mxCell id="jgiwaZmRZfAXH9g5tH43-8" value="" style="group" vertex="1" connectable="0" parent="jgiwaZmRZfAXH9g5tH43-6">
          <mxGeometry width="210" height="150" as="geometry" />
        </mxCell>
        <mxCell id="jgiwaZmRZfAXH9g5tH43-3" value="&lt;b&gt;ADCS&lt;/b&gt;" style="rounded=1;whiteSpace=wrap;html=1;fillColor=#dae8fc;strokeColor=#6c8ebf;" vertex="1" parent="jgiwaZmRZfAXH9g5tH43-8">
          <mxGeometry width="210" height="150" as="geometry" />
        </mxCell>
        <mxCell id="jgiwaZmRZfAXH9g5tH43-4" value="World Engine" style="rounded=1;whiteSpace=wrap;html=1;fillColor=#fff2cc;strokeColor=#d6b656;dashed=1;dashPattern=8 8;" vertex="1" parent="jgiwaZmRZfAXH9g5tH43-8">
          <mxGeometry x="32.5" y="90" width="145" height="40" as="geometry" />
        </mxCell>
        <mxCell id="jgiwaZmRZfAXH9g5tH43-9" value="" style="group" vertex="1" connectable="0" parent="1">
          <mxGeometry x="320" y="120" width="210" height="150" as="geometry" />
        </mxCell>
        <mxCell id="jgiwaZmRZfAXH9g5tH43-10" value="" style="group" vertex="1" connectable="0" parent="jgiwaZmRZfAXH9g5tH43-9">
          <mxGeometry width="210" height="150" as="geometry" />
        </mxCell>
        <mxCell id="jgiwaZmRZfAXH9g5tH43-11" value="&lt;b&gt;OBC&lt;/b&gt;" style="rounded=1;whiteSpace=wrap;html=1;fillColor=#dae8fc;strokeColor=#6c8ebf;" vertex="1" parent="jgiwaZmRZfAXH9g5tH43-10">
          <mxGeometry width="210" height="150" as="geometry" />
        </mxCell>
        <mxCell id="jgiwaZmRZfAXH9g5tH43-12" value="Decision Engine" style="rounded=1;whiteSpace=wrap;html=1;fillColor=#fff2cc;strokeColor=#d6b656;dashed=1;dashPattern=8 8;" vertex="1" parent="jgiwaZmRZfAXH9g5tH43-10">
          <mxGeometry x="32.5" y="90" width="145" height="40" as="geometry" />
        </mxCell>
        <mxCell id="jgiwaZmRZfAXH9g5tH43-13" value="" style="group" vertex="1" connectable="0" parent="1">
          <mxGeometry x="590" y="120" width="210" height="150" as="geometry" />
        </mxCell>
        <mxCell id="jgiwaZmRZfAXH9g5tH43-14" value="" style="group" vertex="1" connectable="0" parent="jgiwaZmRZfAXH9g5tH43-13">
          <mxGeometry width="210" height="150" as="geometry" />
        </mxCell>
        <mxCell id="jgiwaZmRZfAXH9g5tH43-15" value="&lt;b&gt;EPS&lt;/b&gt;" style="rounded=1;whiteSpace=wrap;html=1;fillColor=#dae8fc;strokeColor=#6c8ebf;" vertex="1" parent="jgiwaZmRZfAXH9g5tH43-14">
          <mxGeometry width="210" height="150" as="geometry" />
        </mxCell>
        <mxCell id="jgiwaZmRZfAXH9g5tH43-16" value="Power System" style="rounded=1;whiteSpace=wrap;html=1;fillColor=#fff2cc;strokeColor=#d6b656;dashed=1;dashPattern=8 8;" vertex="1" parent="jgiwaZmRZfAXH9g5tH43-14">
          <mxGeometry x="32.5" y="90" width="145" height="40" as="geometry" />
        </mxCell>
        <mxCell id="jgiwaZmRZfAXH9g5tH43-19" value="" style="endArrow=classic;startArrow=classic;html=1;rounded=0;entryX=0.001;entryY=0.532;entryDx=0;entryDy=0;entryPerimeter=0;" edge="1" parent="1" target="jgiwaZmRZfAXH9g5tH43-15">
          <mxGeometry width="50" height="50" relative="1" as="geometry">
            <mxPoint x="530" y="200" as="sourcePoint" />
            <mxPoint x="580" y="150" as="targetPoint" />
          </mxGeometry>
        </mxCell>
        <mxCell id="jgiwaZmRZfAXH9g5tH43-20" value="" style="endArrow=classic;startArrow=classic;html=1;rounded=0;entryX=0.001;entryY=0.532;entryDx=0;entryDy=0;entryPerimeter=0;" edge="1" parent="1">
          <mxGeometry width="50" height="50" relative="1" as="geometry">
            <mxPoint x="260" y="200" as="sourcePoint" />
            <mxPoint x="320" y="200" as="targetPoint" />
          </mxGeometry>
        </mxCell>
        <mxCell id="jgiwaZmRZfAXH9g5tH43-21" value="CoreFSM" style="rounded=1;whiteSpace=wrap;html=1;fillColor=#f8cecc;strokeColor=#b85450;" vertex="1" parent="1">
          <mxGeometry x="353" y="320" width="145" height="40" as="geometry" />
        </mxCell>
        <mxCell id="jgiwaZmRZfAXH9g5tH43-22" value="" style="endArrow=classic;startArrow=classic;html=1;rounded=0;entryX=0.5;entryY=0;entryDx=0;entryDy=0;" edge="1" parent="1" target="jgiwaZmRZfAXH9g5tH43-21">
          <mxGeometry width="50" height="50" relative="1" as="geometry">
            <mxPoint x="425.01" y="250" as="sourcePoint" />
            <mxPoint x="424.9950000000001" y="318" as="targetPoint" />
          </mxGeometry>
        </mxCell>
        <mxCell id="jgiwaZmRZfAXH9g5tH43-23" value="Mission Control&lt;div&gt;Engine&lt;/div&gt;" style="rounded=1;whiteSpace=wrap;html=1;fillColor=#fff2cc;strokeColor=#d6b656;dashed=1;dashPattern=8 8;" vertex="1" parent="1">
          <mxGeometry x="191.5" y="380" width="178.5" height="40" as="geometry" />
        </mxCell>
        <mxCell id="jgiwaZmRZfAXH9g5tH43-24" value="" style="group" vertex="1" connectable="0" parent="1">
          <mxGeometry x="180" y="460" width="210" height="150" as="geometry" />
        </mxCell>
        <mxCell id="jgiwaZmRZfAXH9g5tH43-25" value="" style="group" vertex="1" connectable="0" parent="jgiwaZmRZfAXH9g5tH43-24">
          <mxGeometry width="210" height="150" as="geometry" />
        </mxCell>
        <mxCell id="jgiwaZmRZfAXH9g5tH43-26" value="&lt;b&gt;PAYLOAD&lt;/b&gt;" style="rounded=1;whiteSpace=wrap;html=1;fillColor=#dae8fc;strokeColor=#6c8ebf;" vertex="1" parent="jgiwaZmRZfAXH9g5tH43-25">
          <mxGeometry width="210" height="150" as="geometry" />
        </mxCell>
        <mxCell id="jgiwaZmRZfAXH9g5tH43-27" value="Imaging Engine" style="rounded=1;whiteSpace=wrap;html=1;fillColor=#fff2cc;strokeColor=#d6b656;dashed=1;dashPattern=8 8;" vertex="1" parent="jgiwaZmRZfAXH9g5tH43-25">
          <mxGeometry x="32.5" y="90" width="145" height="40" as="geometry" />
        </mxCell>
        <mxCell id="jgiwaZmRZfAXH9g5tH43-29" value="" style="endArrow=classic;startArrow=classic;html=1;rounded=0;exitX=0;exitY=0.667;exitDx=0;exitDy=0;exitPerimeter=0;" edge="1" parent="1" source="jgiwaZmRZfAXH9g5tH43-11">
          <mxGeometry width="50" height="50" relative="1" as="geometry">
            <mxPoint x="319.76" y="361" as="sourcePoint" />
            <mxPoint x="280" y="380" as="targetPoint" />
            <Array as="points">
              <mxPoint x="280" y="220" />
            </Array>
          </mxGeometry>
        </mxCell>
        <mxCell id="jgiwaZmRZfAXH9g5tH43-30" value="" style="endArrow=classic;startArrow=classic;html=1;rounded=0;entryX=0.453;entryY=-0.009;entryDx=0;entryDy=0;entryPerimeter=0;exitX=0.502;exitY=1.014;exitDx=0;exitDy=0;exitPerimeter=0;" edge="1" parent="1">
          <mxGeometry width="50" height="50" relative="1" as="geometry">
            <mxPoint x="283.29999999999995" y="420" as="sourcePoint" />
            <mxPoint x="283.42999999999984" y="459" as="targetPoint" />
          </mxGeometry>
        </mxCell>
        <mxCell id="jgiwaZmRZfAXH9g5tH43-54" value="" style="edgeStyle=orthogonalEdgeStyle;rounded=0;orthogonalLoop=1;jettySize=auto;html=1;" edge="1" parent="1" source="jgiwaZmRZfAXH9g5tH43-53" target="jgiwaZmRZfAXH9g5tH43-23">
          <mxGeometry relative="1" as="geometry" />
        </mxCell>
        <mxCell id="jgiwaZmRZfAXH9g5tH43-53" value="Command&amp;nbsp;&lt;div&gt;Sequencer&lt;/div&gt;" style="rounded=1;whiteSpace=wrap;html=1;fillColor=#f8cecc;strokeColor=#b85450;" vertex="1" parent="1">
          <mxGeometry x="20" y="380" width="145" height="40" as="geometry" />
        </mxCell>
        <mxCell id="jgiwaZmRZfAXH9g5tH43-77" value="" style="group" vertex="1" connectable="0" parent="1">
          <mxGeometry x="25" y="1165" width="220" height="490" as="geometry" />
        </mxCell>
        <mxCell id="jgiwaZmRZfAXH9g5tH43-78" value="" style="whiteSpace=wrap;html=1;dashed=1;" vertex="1" parent="jgiwaZmRZfAXH9g5tH43-77">
          <mxGeometry width="220" height="490" as="geometry" />
        </mxCell>
        <mxCell id="jgiwaZmRZfAXH9g5tH43-79" value="Read accelerometer" style="rounded=1;whiteSpace=wrap;html=1;fillColor=#fff2cc;strokeColor=#d6b656;" vertex="1" parent="jgiwaZmRZfAXH9g5tH43-77">
          <mxGeometry x="10" y="40" width="200" height="40" as="geometry" />
        </mxCell>
        <mxCell id="jgiwaZmRZfAXH9g5tH43-80" value="&lt;span style=&quot;text-wrap-mode: wrap;&quot;&gt;&lt;b&gt;World Engine&lt;/b&gt;&lt;/span&gt;" style="text;html=1;align=center;verticalAlign=middle;resizable=0;points=[];autosize=1;strokeColor=none;fillColor=none;" vertex="1" parent="jgiwaZmRZfAXH9g5tH43-77">
          <mxGeometry x="60" width="100" height="30" as="geometry" />
        </mxCell>
        <mxCell id="jgiwaZmRZfAXH9g5tH43-81" value="Read IMU" style="rounded=1;whiteSpace=wrap;html=1;fillColor=#fff2cc;strokeColor=#d6b656;" vertex="1" parent="jgiwaZmRZfAXH9g5tH43-77">
          <mxGeometry x="10" y="95" width="200" height="40" as="geometry" />
        </mxCell>
        <mxCell id="jgiwaZmRZfAXH9g5tH43-82" value="Read GPS" style="rounded=1;whiteSpace=wrap;html=1;fillColor=#fff2cc;strokeColor=#d6b656;" vertex="1" parent="jgiwaZmRZfAXH9g5tH43-77">
          <mxGeometry x="10" y="150" width="200" height="40" as="geometry" />
        </mxCell>
        <mxCell id="jgiwaZmRZfAXH9g5tH43-83" value="Read Magnetometer" style="rounded=1;whiteSpace=wrap;html=1;fillColor=#fff2cc;strokeColor=#d6b656;" vertex="1" parent="jgiwaZmRZfAXH9g5tH43-77">
          <mxGeometry x="10" y="210" width="200" height="40" as="geometry" />
        </mxCell>
        <mxCell id="jgiwaZmRZfAXH9g5tH43-84" value="Read sun sensor data" style="rounded=1;whiteSpace=wrap;html=1;fillColor=#fff2cc;strokeColor=#d6b656;" vertex="1" parent="jgiwaZmRZfAXH9g5tH43-77">
          <mxGeometry x="10" y="270" width="200" height="40" as="geometry" />
        </mxCell>
        <mxCell id="jgiwaZmRZfAXH9g5tH43-85" value="EK-Filter" style="rounded=1;whiteSpace=wrap;html=1;fillColor=#fff2cc;strokeColor=#d6b656;" vertex="1" parent="jgiwaZmRZfAXH9g5tH43-77">
          <mxGeometry x="10" y="325" width="200" height="40" as="geometry" />
        </mxCell>
        <mxCell id="jgiwaZmRZfAXH9g5tH43-86" value="Pitch, Roll (Yaw) Resolver" style="rounded=1;whiteSpace=wrap;html=1;fillColor=#fff2cc;strokeColor=#d6b656;" vertex="1" parent="jgiwaZmRZfAXH9g5tH43-77">
          <mxGeometry x="10" y="380" width="200" height="40" as="geometry" />
        </mxCell>
        <mxCell id="jgiwaZmRZfAXH9g5tH43-87" value="Attitude combination and&lt;div&gt;resolver&lt;/div&gt;" style="rounded=1;whiteSpace=wrap;html=1;fillColor=#fff2cc;strokeColor=#d6b656;" vertex="1" parent="jgiwaZmRZfAXH9g5tH43-77">
          <mxGeometry x="10" y="440" width="200" height="40" as="geometry" />
        </mxCell>
        <mxCell id="jgiwaZmRZfAXH9g5tH43-88" value="" style="group" vertex="1" connectable="0" parent="1">
          <mxGeometry x="310" y="1165" width="220" height="670" as="geometry" />
        </mxCell>
        <mxCell id="jgiwaZmRZfAXH9g5tH43-89" value="" style="whiteSpace=wrap;html=1;dashed=1;container=0;" vertex="1" parent="jgiwaZmRZfAXH9g5tH43-88">
          <mxGeometry width="220" height="670" as="geometry" />
        </mxCell>
        <mxCell id="jgiwaZmRZfAXH9g5tH43-90" value="Battery voltage check" style="rounded=1;whiteSpace=wrap;html=1;fillColor=#d5e8d4;strokeColor=#82b366;container=0;" vertex="1" parent="jgiwaZmRZfAXH9g5tH43-88">
          <mxGeometry x="10" y="40" width="200" height="40" as="geometry" />
        </mxCell>
        <mxCell id="jgiwaZmRZfAXH9g5tH43-91" value="&lt;span style=&quot;text-wrap-mode: wrap;&quot;&gt;&lt;b&gt;Power System&lt;/b&gt;&lt;/span&gt;" style="text;html=1;align=center;verticalAlign=middle;resizable=0;points=[];autosize=1;strokeColor=none;fillColor=none;container=0;" vertex="1" parent="jgiwaZmRZfAXH9g5tH43-88">
          <mxGeometry x="55" width="110" height="30" as="geometry" />
        </mxCell>
        <mxCell id="jgiwaZmRZfAXH9g5tH43-92" value="SOC check" style="rounded=1;whiteSpace=wrap;html=1;fillColor=#d5e8d4;strokeColor=#82b366;container=0;" vertex="1" parent="jgiwaZmRZfAXH9g5tH43-88">
          <mxGeometry x="10" y="95" width="200" height="40" as="geometry" />
        </mxCell>
        <mxCell id="jgiwaZmRZfAXH9g5tH43-93" value="SOH check" style="rounded=1;whiteSpace=wrap;html=1;fillColor=#d5e8d4;strokeColor=#82b366;container=0;" vertex="1" parent="jgiwaZmRZfAXH9g5tH43-88">
          <mxGeometry x="10" y="150" width="200" height="40" as="geometry" />
        </mxCell>
        <mxCell id="jgiwaZmRZfAXH9g5tH43-94" value="Solar input voltage" style="rounded=1;whiteSpace=wrap;html=1;fillColor=#d5e8d4;strokeColor=#82b366;container=0;" vertex="1" parent="jgiwaZmRZfAXH9g5tH43-88">
          <mxGeometry x="10" y="210" width="200" height="40" as="geometry" />
        </mxCell>
        <mxCell id="jgiwaZmRZfAXH9g5tH43-95" value="Solar current input" style="rounded=1;whiteSpace=wrap;html=1;fillColor=#d5e8d4;strokeColor=#82b366;container=0;" vertex="1" parent="jgiwaZmRZfAXH9g5tH43-88">
          <mxGeometry x="10" y="270" width="200" height="40" as="geometry" />
        </mxCell>
        <mxCell id="jgiwaZmRZfAXH9g5tH43-96" value="Power rails voltages" style="rounded=1;whiteSpace=wrap;html=1;fillColor=#d5e8d4;strokeColor=#82b366;container=0;" vertex="1" parent="jgiwaZmRZfAXH9g5tH43-88">
          <mxGeometry x="10" y="325" width="200" height="40" as="geometry" />
        </mxCell>
        <mxCell id="jgiwaZmRZfAXH9g5tH43-97" value="Thermal system management" style="rounded=1;whiteSpace=wrap;html=1;fillColor=#d5e8d4;strokeColor=#82b366;container=0;" vertex="1" parent="jgiwaZmRZfAXH9g5tH43-88">
          <mxGeometry x="10" y="380" width="200" height="40" as="geometry" />
        </mxCell>
        <mxCell id="jgiwaZmRZfAXH9g5tH43-98" value="EPS mode (Deployment&amp;nbsp;&lt;div&gt;status)&lt;/div&gt;" style="rounded=1;whiteSpace=wrap;html=1;fillColor=#d5e8d4;strokeColor=#82b366;container=0;" vertex="1" parent="jgiwaZmRZfAXH9g5tH43-88">
          <mxGeometry x="10" y="440" width="200" height="40" as="geometry" />
        </mxCell>
        <mxCell id="jgiwaZmRZfAXH9g5tH43-99" value="Power sequencer" style="rounded=1;whiteSpace=wrap;html=1;fillColor=#d5e8d4;strokeColor=#82b366;container=0;" vertex="1" parent="jgiwaZmRZfAXH9g5tH43-88">
          <mxGeometry x="10" y="500" width="200" height="40" as="geometry" />
        </mxCell>
        <mxCell id="jgiwaZmRZfAXH9g5tH43-100" value="MPTT mode settings" style="rounded=1;whiteSpace=wrap;html=1;fillColor=#d5e8d4;strokeColor=#82b366;container=0;" vertex="1" parent="jgiwaZmRZfAXH9g5tH43-88">
          <mxGeometry x="10" y="560" width="200" height="40" as="geometry" />
        </mxCell>
        <mxCell id="jgiwaZmRZfAXH9g5tH43-101" value="Logger" style="rounded=1;whiteSpace=wrap;html=1;fillColor=#d5e8d4;strokeColor=#82b366;container=0;dashed=1;dashPattern=8 8;" vertex="1" parent="jgiwaZmRZfAXH9g5tH43-88">
          <mxGeometry x="10" y="610" width="200" height="40" as="geometry" />
        </mxCell>
        <mxCell id="jgiwaZmRZfAXH9g5tH43-117" value="" style="group" vertex="1" connectable="0" parent="1">
          <mxGeometry x="565" y="1160" width="260" height="785" as="geometry" />
        </mxCell>
        <mxCell id="jgiwaZmRZfAXH9g5tH43-76" value="" style="whiteSpace=wrap;html=1;fillColor=#f8cecc;strokeColor=#b85450;" vertex="1" parent="jgiwaZmRZfAXH9g5tH43-117">
          <mxGeometry y="145" width="260" height="640" as="geometry" />
        </mxCell>
        <mxCell id="jgiwaZmRZfAXH9g5tH43-102" value="" style="whiteSpace=wrap;html=1;dashed=1;container=0;" vertex="1" parent="jgiwaZmRZfAXH9g5tH43-117">
          <mxGeometry x="20" y="5" width="220" height="720" as="geometry" />
        </mxCell>
        <mxCell id="jgiwaZmRZfAXH9g5tH43-103" value="Onboard telemetry receiver" style="rounded=1;whiteSpace=wrap;html=1;fillColor=#d5e8d4;strokeColor=#82b366;container=0;" vertex="1" parent="jgiwaZmRZfAXH9g5tH43-117">
          <mxGeometry x="30" y="45" width="200" height="40" as="geometry" />
        </mxCell>
        <mxCell id="jgiwaZmRZfAXH9g5tH43-104" value="&lt;span style=&quot;text-wrap-mode: wrap;&quot;&gt;&lt;b&gt;Decision&amp;nbsp;&lt;/b&gt;&lt;/span&gt;&lt;div&gt;&lt;span style=&quot;text-wrap-mode: wrap;&quot;&gt;&lt;b&gt;Engine&lt;/b&gt;&lt;/span&gt;&lt;/div&gt;" style="text;html=1;align=center;verticalAlign=middle;resizable=0;points=[];autosize=1;strokeColor=none;fillColor=none;container=0;" vertex="1" parent="jgiwaZmRZfAXH9g5tH43-117">
          <mxGeometry x="90" width="80" height="40" as="geometry" />
        </mxCell>
        <mxCell id="jgiwaZmRZfAXH9g5tH43-105" value="Telemetry threshold checks" style="rounded=1;whiteSpace=wrap;html=1;fillColor=#d5e8d4;strokeColor=#82b366;container=0;" vertex="1" parent="jgiwaZmRZfAXH9g5tH43-117">
          <mxGeometry x="30" y="100" width="200" height="40" as="geometry" />
        </mxCell>
        <mxCell id="jgiwaZmRZfAXH9g5tH43-106" value="STATE_BOOT" style="rounded=1;whiteSpace=wrap;html=1;fillColor=#f8cecc;strokeColor=#b85450;container=0;" vertex="1" parent="jgiwaZmRZfAXH9g5tH43-117">
          <mxGeometry x="30" y="155" width="200" height="40" as="geometry" />
        </mxCell>
        <mxCell id="jgiwaZmRZfAXH9g5tH43-107" value="STATE_SAFE" style="rounded=1;whiteSpace=wrap;html=1;fillColor=#f8cecc;strokeColor=#b85450;container=0;" vertex="1" parent="jgiwaZmRZfAXH9g5tH43-117">
          <mxGeometry x="30" y="215" width="200" height="40" as="geometry" />
        </mxCell>
        <mxCell id="jgiwaZmRZfAXH9g5tH43-108" value="STATE_DETUMBLE" style="rounded=1;whiteSpace=wrap;html=1;fillColor=#f8cecc;strokeColor=#b85450;container=0;" vertex="1" parent="jgiwaZmRZfAXH9g5tH43-117">
          <mxGeometry x="30" y="275" width="200" height="40" as="geometry" />
        </mxCell>
        <mxCell id="jgiwaZmRZfAXH9g5tH43-109" value="STATE_POWER" style="rounded=1;whiteSpace=wrap;html=1;fillColor=#f8cecc;strokeColor=#b85450;container=0;" vertex="1" parent="jgiwaZmRZfAXH9g5tH43-117">
          <mxGeometry x="30" y="330" width="200" height="40" as="geometry" />
        </mxCell>
        <mxCell id="jgiwaZmRZfAXH9g5tH43-110" value="STATE_NOMINAL" style="rounded=1;whiteSpace=wrap;html=1;fillColor=#f8cecc;strokeColor=#b85450;container=0;" vertex="1" parent="jgiwaZmRZfAXH9g5tH43-117">
          <mxGeometry x="30" y="385" width="200" height="40" as="geometry" />
        </mxCell>
        <mxCell id="jgiwaZmRZfAXH9g5tH43-111" value="STATE_MISSION" style="rounded=1;whiteSpace=wrap;html=1;fillColor=#f8cecc;strokeColor=#b85450;container=0;" vertex="1" parent="jgiwaZmRZfAXH9g5tH43-117">
          <mxGeometry x="30" y="445" width="200" height="40" as="geometry" />
        </mxCell>
        <mxCell id="jgiwaZmRZfAXH9g5tH43-112" value="STATE_DOWNLINK" style="rounded=1;whiteSpace=wrap;html=1;fillColor=#f8cecc;strokeColor=#b85450;container=0;" vertex="1" parent="jgiwaZmRZfAXH9g5tH43-117">
          <mxGeometry x="30" y="505" width="200" height="40" as="geometry" />
        </mxCell>
        <mxCell id="jgiwaZmRZfAXH9g5tH43-113" value="STATE_SURVIVAL" style="rounded=1;whiteSpace=wrap;html=1;fillColor=#f8cecc;strokeColor=#b85450;container=0;" vertex="1" parent="jgiwaZmRZfAXH9g5tH43-117">
          <mxGeometry x="30" y="565" width="200" height="40" as="geometry" />
        </mxCell>
        <mxCell id="jgiwaZmRZfAXH9g5tH43-114" value="STATE_FAULT" style="rounded=1;whiteSpace=wrap;html=1;fillColor=#f8cecc;strokeColor=#b85450;container=0;" vertex="1" parent="jgiwaZmRZfAXH9g5tH43-117">
          <mxGeometry x="30" y="615" width="200" height="40" as="geometry" />
        </mxCell>
        <mxCell id="jgiwaZmRZfAXH9g5tH43-115" value="GROUND_MODE" style="rounded=1;whiteSpace=wrap;html=1;fillColor=#fff2cc;strokeColor=#d6b656;container=0;" vertex="1" parent="jgiwaZmRZfAXH9g5tH43-117">
          <mxGeometry x="30" y="675" width="200" height="40" as="geometry" />
        </mxCell>
        <mxCell id="jgiwaZmRZfAXH9g5tH43-116" value="&lt;b&gt;CoreFSM&lt;/b&gt;" style="text;html=1;align=center;verticalAlign=middle;resizable=0;points=[];autosize=1;strokeColor=none;fillColor=none;" vertex="1" parent="jgiwaZmRZfAXH9g5tH43-117">
          <mxGeometry x="80" y="745" width="80" height="30" as="geometry" />
        </mxCell>
        <mxCell id="jgiwaZmRZfAXH9g5tH43-119" value="" style="whiteSpace=wrap;html=1;dashed=1;container=0;" vertex="1" parent="1">
          <mxGeometry x="880" y="1160" width="220" height="820" as="geometry" />
        </mxCell>
        <mxCell id="jgiwaZmRZfAXH9g5tH43-120" value="Camera config" style="rounded=1;whiteSpace=wrap;html=1;fillColor=#d5e8d4;strokeColor=#82b366;container=0;" vertex="1" parent="1">
          <mxGeometry x="890" y="1200" width="200" height="40" as="geometry" />
        </mxCell>
        <mxCell id="jgiwaZmRZfAXH9g5tH43-121" value="&lt;span style=&quot;text-wrap-mode: wrap;&quot;&gt;&lt;b&gt;Imaging&amp;nbsp;&lt;/b&gt;&lt;/span&gt;&lt;div&gt;&lt;span style=&quot;text-wrap-mode: wrap;&quot;&gt;&lt;b&gt;Engine&lt;/b&gt;&lt;/span&gt;&lt;/div&gt;" style="text;html=1;align=center;verticalAlign=middle;resizable=0;points=[];autosize=1;strokeColor=none;fillColor=none;container=0;" vertex="1" parent="1">
          <mxGeometry x="955" y="1155" width="70" height="40" as="geometry" />
        </mxCell>
        <mxCell id="jgiwaZmRZfAXH9g5tH43-122" value="Camera trigger on time" style="rounded=1;whiteSpace=wrap;html=1;fillColor=#d5e8d4;strokeColor=#82b366;container=0;" vertex="1" parent="1">
          <mxGeometry x="890" y="1255" width="200" height="40" as="geometry" />
        </mxCell>
        <mxCell id="jgiwaZmRZfAXH9g5tH43-123" value="Parallel data acquire" style="rounded=1;whiteSpace=wrap;html=1;fillColor=#d5e8d4;strokeColor=#82b366;container=0;" vertex="1" parent="1">
          <mxGeometry x="890" y="1310" width="200" height="40" as="geometry" />
        </mxCell>
        <mxCell id="jgiwaZmRZfAXH9g5tH43-124" value="DMA image sampler" style="rounded=1;whiteSpace=wrap;html=1;fillColor=#d5e8d4;strokeColor=#82b366;container=0;" vertex="1" parent="1">
          <mxGeometry x="890" y="1370" width="200" height="40" as="geometry" />
        </mxCell>
        <mxCell id="jgiwaZmRZfAXH9g5tH43-125" value="Image compression" style="rounded=1;whiteSpace=wrap;html=1;fillColor=#d5e8d4;strokeColor=#82b366;container=0;" vertex="1" parent="1">
          <mxGeometry x="890" y="1430" width="200" height="40" as="geometry" />
        </mxCell>
        <mxCell id="jgiwaZmRZfAXH9g5tH43-126" value="Storage" style="rounded=1;whiteSpace=wrap;html=1;fillColor=#d5e8d4;strokeColor=#82b366;container=0;" vertex="1" parent="1">
          <mxGeometry x="890" y="1485" width="200" height="40" as="geometry" />
        </mxCell>
        <mxCell id="jgiwaZmRZfAXH9g5tH43-127" value="Telemetry packager" style="rounded=1;whiteSpace=wrap;html=1;fillColor=#d5e8d4;strokeColor=#82b366;container=0;" vertex="1" parent="1">
          <mxGeometry x="890" y="1540" width="200" height="40" as="geometry" />
        </mxCell>
        <mxCell id="jgiwaZmRZfAXH9g5tH43-128" value="Image Downlink" style="rounded=1;whiteSpace=wrap;html=1;fillColor=#d5e8d4;strokeColor=#82b366;container=0;" vertex="1" parent="1">
          <mxGeometry x="890" y="1600" width="200" height="40" as="geometry" />
        </mxCell>
        <mxCell id="jgiwaZmRZfAXH9g5tH43-129" value="Command processor" style="rounded=1;whiteSpace=wrap;html=1;fillColor=#d5e8d4;strokeColor=#82b366;container=0;" vertex="1" parent="1">
          <mxGeometry x="890" y="1660" width="200" height="40" as="geometry" />
        </mxCell>
        <mxCell id="jgiwaZmRZfAXH9g5tH43-130" value="MPTT mode settings" style="rounded=1;whiteSpace=wrap;html=1;fillColor=#d5e8d4;strokeColor=#82b366;container=0;" vertex="1" parent="1">
          <mxGeometry x="890" y="1720" width="200" height="40" as="geometry" />
        </mxCell>
        <mxCell id="jgiwaZmRZfAXH9g5tH43-131" value="STATE_OFF" style="rounded=1;whiteSpace=wrap;html=1;fillColor=#f8cecc;strokeColor=#b85450;container=0;" vertex="1" parent="1">
          <mxGeometry x="890" y="1770" width="200" height="40" as="geometry" />
        </mxCell>
        <mxCell id="jgiwaZmRZfAXH9g5tH43-132" value="STATE_IDLE" style="rounded=1;whiteSpace=wrap;html=1;fillColor=#f8cecc;strokeColor=#b85450;container=0;" vertex="1" parent="1">
          <mxGeometry x="890" y="1820" width="200" height="40" as="geometry" />
        </mxCell>
        <mxCell id="jgiwaZmRZfAXH9g5tH43-133" value="STATE_CAPTURE" style="rounded=1;whiteSpace=wrap;html=1;fillColor=#f8cecc;strokeColor=#b85450;container=0;" vertex="1" parent="1">
          <mxGeometry x="890" y="1870" width="200" height="40" as="geometry" />
        </mxCell>
        <mxCell id="jgiwaZmRZfAXH9g5tH43-134" value="STATE_TRANSFER" style="rounded=1;whiteSpace=wrap;html=1;fillColor=#f8cecc;strokeColor=#b85450;container=0;" vertex="1" parent="1">
          <mxGeometry x="890" y="1920" width="200" height="40" as="geometry" />
        </mxCell>
        <mxCell id="jgiwaZmRZfAXH9g5tH43-135" value="" style="shape=trapezoid;perimeter=trapezoidPerimeter;whiteSpace=wrap;html=1;fixedSize=1;direction=south;fillColor=#f8cecc;strokeColor=#b85450;" vertex="1" parent="1">
          <mxGeometry x="1110" y="1770" width="60" height="200" as="geometry" />
        </mxCell>
        <mxCell id="jgiwaZmRZfAXH9g5tH43-136" value="PAYLOAD HSM" style="text;html=1;align=center;verticalAlign=middle;resizable=0;points=[];autosize=1;strokeColor=none;fillColor=none;rotation=90;fontStyle=1" vertex="1" parent="1">
          <mxGeometry x="1085" y="1850" width="110" height="30" as="geometry" />
        </mxCell>
      </root>
    </mxGraphModel>
  </diagram>
</mxfile>
